<svg width="109" height="118" viewBox="0 0 109 118" fill="none" xmlns="http://www.w3.org/2000/svg">
<g id="Calendar">
<path id="Vector" d="M54.0215 117.308C37.692 117.308 21.3625 117.308 5.0219 117.308C1.23053 117.308 0 116.044 0 112.124C0 80.7419 0 49.3596 0 17.9773C0 13.953 1.07533 12.8397 4.96647 12.8397C8.39201 12.8397 11.8286 12.7701 15.2542 12.8745C16.7175 12.9209 17.1609 12.3526 17.1055 10.8913C17.0168 8.85022 17.0501 6.7859 17.1055 4.74478C17.172 1.78746 18.3139 0.627732 21.1186 0.569745C24.7769 0.500161 25.952 1.67149 25.9853 5.46381C25.9964 7.2266 26.074 9.00099 25.9631 10.7638C25.8634 12.3526 26.6172 12.6309 27.9032 12.7005C30.6192 12.8513 33.3242 12.6078 36.0402 12.6193C51.1724 12.6773 66.3047 12.7701 81.4369 12.8397C83.7427 12.8397 83.7206 12.8397 83.7538 10.3695C83.7871 8.15438 83.6319 5.9277 83.8979 3.71262C84.0864 2.0658 84.9844 1.17281 86.4366 0.778497C90.3721 -0.300053 92.6225 1.47434 92.6447 5.67256C92.6447 7.31938 92.7445 8.98939 92.6225 10.6246C92.5006 12.3062 92.9773 12.9557 94.6956 12.8861C97.7331 12.7469 100.793 12.8397 103.841 12.8513C106.79 12.8513 108.121 14.1618 108.32 17.2467C108.364 17.8729 108.342 18.4992 108.342 19.1254C108.342 49.6496 108.342 80.1853 108.342 110.709C108.342 111.336 108.342 111.962 108.32 112.588C108.143 115.835 106.668 117.32 103.542 117.32C87.0463 117.32 70.5505 117.32 54.0548 117.32L54.0215 117.308ZM54.1545 38.9916C37.5035 38.9916 20.8525 38.9916 4.20155 38.9916C2.64953 38.9916 1.87351 39.8034 1.87351 41.4271C1.87351 64.4245 1.87351 87.4336 1.87351 110.431C1.87351 115.047 2.16175 115.36 6.5961 115.36C38.213 115.36 69.83 115.36 101.447 115.36C102.422 115.36 103.398 115.221 104.374 115.116C105.549 115 106.081 114.223 106.181 113.064C106.236 112.437 106.236 111.811 106.236 111.185C106.236 87.8975 106.236 64.6101 106.236 41.3227C106.236 38.9916 106.236 38.98 103.963 38.98C87.3678 38.98 70.7723 38.98 54.1656 38.98L54.1545 38.9916ZM54.0104 36.8113C70.7723 36.8113 87.523 36.7997 104.285 36.8345C105.77 36.8345 106.269 36.3822 106.247 34.805C106.169 29.1107 106.225 23.4164 106.203 17.7222C106.203 15.3911 105.637 14.8112 103.376 14.7996C100.383 14.7764 97.3895 14.846 94.3963 14.7764C93.1325 14.7417 92.5671 15.1128 92.4562 16.5508C92.2456 19.0906 91.2701 19.8909 88.8422 19.9257C88.3545 19.9257 87.8667 19.9257 87.3678 19.9257C84.9844 19.8909 83.9423 18.9979 83.776 16.5044C83.6873 15.1824 83.255 14.7649 82.0023 14.7649C63.8879 14.788 45.7625 14.7764 27.6482 14.7417C26.4287 14.7417 25.941 15.1128 25.8079 16.4465C25.553 19.0327 24.5552 19.8561 22.0387 19.8909C21.6064 19.8909 21.1629 19.8909 20.7306 19.8909C18.4247 19.8445 17.2718 18.8587 17.1277 16.4349C17.039 15.0084 16.4514 14.7649 15.2763 14.7764C11.9617 14.8228 8.6359 14.7764 5.32122 14.7996C2.42781 14.7996 1.86243 15.3795 1.85134 18.3716C1.85134 23.776 1.85134 29.1919 1.85134 34.5962C1.85134 36.8113 1.85134 36.8229 4.04635 36.8229C20.6973 36.8229 37.3483 36.8229 53.9993 36.8229L54.0104 36.8113ZM90.483 10.3927C90.483 8.57189 90.4164 6.75111 90.5051 4.94193C90.5827 3.26032 89.84 2.76164 88.3434 2.80803C86.1927 2.87761 85.838 3.06317 85.8269 4.93033C85.7936 8.61828 85.8601 12.3178 85.7936 16.0058C85.7715 17.6758 86.6251 18.0005 87.9554 17.9889C89.9841 17.9773 90.4386 17.6874 90.4719 16.0174C90.5162 14.1386 90.4719 12.2714 90.483 10.3927ZM23.8457 10.3347C23.8457 8.45591 23.7792 6.57715 23.8679 4.69839C23.9344 3.16754 23.0365 2.51809 21.8835 2.58768C19.9878 2.71525 19.1897 2.85442 19.1897 4.69839C19.1675 8.45591 19.2229 12.2134 19.1675 15.971C19.1453 17.6758 20.1541 17.7454 21.3292 17.7222C22.5265 17.6874 23.8679 17.9309 23.8568 15.971C23.8457 14.0922 23.8568 12.2134 23.8568 10.3347H23.8457Z" fill="#E2412E"/>
<path id="Vector_2" d="M54.9084 72.4267C51.76 72.4267 48.6005 72.4731 45.4521 72.4035C43.3791 72.3571 42.1929 71.1394 42.1707 68.9939C42.1153 63.9954 42.1153 58.9854 42.1707 53.9754C42.1929 51.7951 43.3901 50.4266 45.4854 50.3106C51.7821 49.9743 58.09 50.1251 64.3979 50.2294C66.5596 50.2642 67.7791 51.4935 67.9232 53.7202C68.2447 58.765 68.2003 63.8331 67.9675 68.8895C67.8567 71.3713 66.482 72.4731 64.0653 72.5079C61.0167 72.5427 57.9792 72.5079 54.9305 72.5079C54.9305 72.4731 54.9305 72.4499 54.9305 72.4151L54.9084 72.4267ZM55.0192 70.3276C55.0192 70.3276 55.0192 70.3392 55.0192 70.3508C57.9016 70.3508 60.7839 70.3624 63.6551 70.3508C65.6284 70.3392 65.961 70.0028 65.9721 67.9849C65.9942 63.5547 65.9942 59.113 65.9721 54.6828C65.9721 52.804 65.5619 52.3865 63.7438 52.3749C57.9237 52.3517 52.1147 52.3865 46.2946 52.3517C44.8535 52.3517 44.1772 52.9432 44.1883 54.4509C44.1994 59.113 44.2105 63.7751 44.1883 68.4372C44.1883 69.8057 44.7315 70.3856 46.0508 70.3624C49.0439 70.316 52.026 70.3508 55.0192 70.3508V70.3276Z" fill="#E2412E"/>
<path id="Vector_3" d="M88.299 50.4382C91.2922 50.4382 94.2854 50.415 97.2786 50.4382C99.6953 50.4614 101.059 51.7487 101.103 54.3117C101.181 59.0898 101.192 63.8794 101.114 68.6575C101.07 71.4757 99.6842 72.6934 96.5359 72.7282C91.0373 72.7862 85.5387 72.7514 80.0401 72.7282C79.5523 72.7282 79.0645 72.647 78.5767 72.5774C76.3928 72.2643 75.251 71.1857 75.2066 68.9359C75.1179 64.0998 75.1068 59.2521 75.2177 54.416C75.2842 51.6211 76.6034 50.4614 79.2973 50.4382C82.2905 50.415 85.2837 50.4382 88.2769 50.4382H88.299ZM88.2658 70.5943C91.0373 70.5943 93.8198 70.5943 96.5913 70.5943C98.6643 70.5943 99.0634 70.2116 99.0745 67.9849C99.1078 63.7171 99.1078 59.4493 99.0745 55.1815C99.0524 52.8272 98.6422 52.3401 96.3585 52.4329C90.7047 52.6764 85.0398 52.5489 79.386 52.5837C77.8561 52.5837 77.2353 53.2795 77.2575 54.8567C77.2908 59.2985 77.2575 63.7403 77.2686 68.182C77.2686 70.1304 77.7231 70.5711 79.6188 70.5943C82.5011 70.6175 85.3835 70.5943 88.2658 70.5943Z" fill="#E2412E"/>
<path id="Vector_4" d="M21.0078 102.881C18.2363 102.881 15.4648 102.928 12.6934 102.881C9.3565 102.812 8.11489 101.64 8.0262 98.1961C7.91534 93.9862 7.91534 89.7764 8.0262 85.5782C8.11489 82.3077 9.03501 81.322 12.1612 81.148C18.0257 80.8233 23.9012 80.9277 29.7656 81.0668C32.9251 81.148 34.0337 82.4817 34.078 85.7753C34.1445 89.8692 34.1334 93.963 34.078 98.0569C34.0226 101.513 32.659 102.858 29.3222 102.893C26.5507 102.916 23.7792 102.893 21.0078 102.893V102.881ZM21.163 100.701C23.9899 100.701 26.8168 100.713 29.6437 100.701C31.5061 100.689 31.9939 100.202 32.005 98.2888C32.0382 94.079 32.0382 89.8692 32.005 85.6594C31.9939 83.711 31.4285 83.1543 29.5217 83.1427C23.8679 83.1196 18.2141 83.1311 12.5492 83.1427C10.5427 83.1427 10.0217 83.6878 10.0106 85.7521C9.9884 89.846 9.99949 93.9398 10.0106 98.0453C10.0106 100.168 10.4651 100.666 12.5049 100.689C15.3872 100.724 18.2696 100.689 21.1519 100.689L21.163 100.701Z" fill="#E2412E"/>
<path id="Vector_5" d="M54.997 102.963C52.0593 102.963 49.1215 102.974 46.1838 102.963C43.3347 102.939 42.1707 101.78 42.1485 98.8571C42.1153 94.1834 42.1153 89.5212 42.1485 84.8475C42.1707 82.2613 43.1352 80.9508 45.6184 80.8233C52.026 80.5217 58.4447 80.4985 64.8635 80.8465C64.9189 80.8465 64.9743 80.858 65.0298 80.8696C66.7259 81.09 67.7125 82.1106 67.8456 83.8733C68.2336 88.9298 68.156 93.9978 67.9454 99.0658C67.8234 101.93 66.5485 102.963 63.8103 102.974C60.8726 102.997 57.9348 102.974 54.997 102.974V102.963ZM55.1522 82.8064C52.2699 82.8064 49.3876 82.7832 46.5053 82.8064C44.6096 82.818 44.2105 83.2355 44.1994 85.2418C44.1661 89.6256 44.1772 94.0094 44.1994 98.3932C44.1994 100.515 44.5541 100.956 46.5607 100.979C52.2699 101.037 57.9902 101.026 63.6995 100.979C65.451 100.968 65.9832 100.307 65.9832 98.4164C65.9942 94.0326 66.0053 89.6488 65.9832 85.265C65.9832 83.3747 65.4399 82.818 63.6551 82.7948C60.8282 82.7716 58.0013 82.7948 55.1633 82.7948L55.1522 82.8064Z" fill="#E2412E"/>
<path id="Vector_6" d="M21.0521 50.4382C24.0453 50.4382 27.0385 50.415 30.0206 50.4382C32.6368 50.4614 33.8341 51.6791 33.8563 54.3928C33.8895 59.113 33.8895 63.8331 33.8563 68.5532C33.8341 71.0466 32.6147 72.4383 30.2755 72.473C24.2448 72.5542 18.2141 72.6006 12.1945 72.5194C9.25671 72.4846 8.20355 71.2205 8.19247 68.1705C8.1703 63.6823 8.15921 59.1825 8.19247 54.6828C8.21464 51.6211 9.35649 50.4382 12.2499 50.4266C15.1877 50.4034 18.1254 50.4266 21.0632 50.4266L21.0521 50.4382ZM22.2937 52.4213C18.3361 52.4213 15.3983 52.4213 12.4605 52.4213C10.9639 52.4213 10.199 53.0708 10.2323 54.7988C10.3099 58.9506 10.2544 63.1024 10.2544 67.2659C10.2544 70.316 10.4983 70.6175 13.3917 70.5943C18.8793 70.5479 24.3779 70.4087 29.8654 70.3623C31.2622 70.3623 31.8276 69.7709 31.8165 68.3328C31.7832 63.7751 31.7721 59.2289 31.8165 54.6712C31.8276 53.1055 31.1624 52.5953 29.7434 52.5605C26.9165 52.4909 24.0896 52.2937 22.2937 52.4213Z" fill="#E2412E"/>
<path id="Vector_7" d="M88.1327 102.893C85.2504 102.893 82.3681 102.928 79.4968 102.893C76.5036 102.846 75.2177 101.513 75.1844 98.3931C75.1512 94.1253 75.1401 89.8691 75.1844 85.6013C75.2177 82.4352 76.4482 81.2059 79.5079 81.1943C85.328 81.1827 91.137 81.1711 96.9571 81.1943C99.917 81.1943 101.136 82.4468 101.159 85.5317C101.192 89.8575 101.192 94.1717 101.159 98.4975C101.136 101.524 99.8727 102.835 96.946 102.881C94.0083 102.928 91.0816 102.881 88.1438 102.881L88.1327 102.893ZM99.0745 92.0146C99.0745 89.7995 99.0412 87.5728 99.0856 85.3577C99.1188 83.8269 98.3983 83.1542 97.0236 83.1426C91.1481 83.1311 85.2837 83.1311 79.4081 83.1426C77.967 83.1426 77.2353 83.8733 77.2464 85.4737C77.2797 89.7995 77.2907 94.1253 77.2464 98.4395C77.2242 100.04 77.845 100.747 79.3749 100.701C85.2837 100.539 91.1924 101.211 97.1012 100.724C98.4648 100.608 99.0967 100.075 99.0856 98.6599C99.0634 96.4448 99.0856 94.2181 99.0856 92.003L99.0745 92.0146Z" fill="#E2412E"/>
<path id="Vector_8" d="M50.4519 66.5468C50.5073 66.1525 50.5405 65.7582 50.6403 65.3755C51.0062 63.9722 50.7068 62.8473 49.5983 61.8963C48.9774 61.3628 48.3345 60.6786 48.7446 59.7044C49.0994 58.8578 49.9087 58.6839 50.6736 58.6955C52.0815 58.6955 52.8464 57.9416 53.3564 56.6543C53.6779 55.8425 54.0326 54.8799 55.1301 54.9379C56.1278 54.9959 56.4715 55.8773 56.7486 56.6543C57.2586 58.0808 58.1565 58.6839 59.5866 58.6955C60.4181 58.6955 61.438 58.6955 61.7927 59.7624C62.1364 60.783 61.3271 61.3628 60.7174 61.8615C59.4979 62.8705 59.121 64.0186 59.5977 65.5959C59.8083 66.3033 59.9746 67.2079 59.2097 67.7877C58.4337 68.3676 57.702 67.8921 57.1034 67.463C55.6179 66.3961 54.3097 66.7672 52.8797 67.6602C51.4718 68.53 50.474 67.9965 50.4629 66.5584L50.4519 66.5468ZM54.9971 57.8025C54.3541 59.4493 53.5892 60.4003 52.1702 60.5858C51.3942 60.6902 51.7157 61.1889 52.0039 61.5484C52.5914 62.279 52.8575 63.114 52.8242 64.065C52.8132 64.5057 52.8464 65.2015 53.4783 64.8768C54.7754 64.2042 55.9948 64.5869 57.6023 65.132C56.66 63.172 57.7685 62.0471 58.7774 60.7018C57.0036 60.5046 55.8507 59.6464 54.9971 57.8025Z" fill="#E2412E"/>
<path id="Vector_9" d="M83.654 66.0713C84.5298 64.2389 83.6319 62.8589 82.0577 61.5484C80.9823 60.6554 81.4036 59.4145 82.7339 59.0201C83.2549 58.8694 83.7982 58.7186 84.3303 58.7186C85.2837 58.7186 85.8269 58.2199 86.1705 57.3501C86.3812 56.8283 86.6251 56.3064 86.9133 55.8309C87.6893 54.5668 88.809 54.5088 89.3854 55.9005C90.1836 57.814 91.3144 58.7882 93.3653 58.9738C95.1279 59.1361 95.4827 60.4002 94.1413 61.6179C92.7445 62.882 92.301 64.1809 92.7888 66.0713C93.1879 67.6137 91.9795 68.6343 90.6825 67.8341C88.9198 66.7555 87.4676 66.7903 85.7493 67.9153C84.4744 68.7503 83.5986 67.9733 83.643 66.0597L83.654 66.0713ZM88.166 57.9184C87.4787 59.542 86.747 60.609 85.2504 60.7597C84.8846 60.7945 84.6074 61.1424 84.9733 61.4672C86.1262 62.4877 86.1151 63.8678 86.0042 65.2943C87.8112 64.6332 87.8112 64.958 89.718 64.958C91.4363 64.958 89.8621 62.5805 91.0816 61.8731C91.1703 61.8267 91.2146 61.6991 91.2811 61.6063C91.658 61.1193 91.5804 60.7018 90.9929 60.6438C89.5517 60.493 88.8755 59.4376 88.166 57.9184Z" fill="#E2412E"/>
<path id="Vector_10" d="M16.4404 96.5606C17.3051 94.5775 16.3517 93.1394 14.711 91.8289C13.7576 91.0635 14.0236 90.1241 15.1433 89.6138C15.3429 89.5211 15.5535 89.4399 15.7641 89.4283C17.6487 89.3355 18.9569 88.5933 19.6996 86.5637C20.2872 84.9517 21.5842 84.9401 22.2826 86.5174C23.103 88.3961 24.2781 89.3355 26.2403 89.3239C26.8389 89.3239 27.4597 89.5327 27.6704 90.2517C27.881 90.9939 27.6038 91.6086 27.0385 92.0493C25.6084 93.1394 25.165 94.4383 25.6306 96.3287C26.0518 98.0915 24.9543 98.9149 23.4577 97.9987C21.7838 96.9781 20.3759 97.1057 18.7573 98.0799C17.3716 98.9149 16.4293 98.277 16.4625 96.5606H16.4404ZM23.5021 95.7256C22.9256 93.7077 23.6129 92.5248 24.91 91.1795C22.8813 91.2259 21.817 90.1937 21.0077 88.4889C20.2428 90.3329 19.0788 91.1563 17.3494 91.4578C18.3028 92.4668 19.0012 93.3714 18.846 94.7051C18.7684 95.3313 19.1786 95.5169 19.6885 95.2501C20.8636 94.6471 22.0055 94.8906 23.5021 95.7256Z" fill="#E2412E"/>
<path id="Vector_11" d="M59.6531 96.3636C59.6864 98.2887 58.8882 98.9846 57.5357 98.1728C55.8396 97.1522 54.4206 97.1406 52.7245 98.2192C51.2722 99.1353 50.1747 98.254 50.5294 96.5491C50.9064 94.74 50.7512 93.3251 49.3322 91.9798C48.0906 90.8201 48.5562 89.3936 50.2412 89.2776C52.0704 89.1501 52.9683 88.2455 53.5559 86.6103C53.7998 85.9376 54.1989 85.265 55.0747 85.2998C55.8728 85.323 56.2165 85.9492 56.4382 86.5755C57.059 88.3151 58.1011 89.2776 59.9746 89.1733C60.6619 89.1385 61.4269 89.3356 61.7373 90.1474C62.0698 91.0056 61.5266 91.5855 60.9723 92.0378C59.4536 93.2671 58.8882 94.74 59.642 96.3868L59.6531 96.3636ZM57.447 95.7025C57.3473 94.9139 57.3029 94.4036 57.2253 93.905C57.059 92.722 58.9215 91.9798 58.2785 91.2492C57.6798 90.5533 56.2941 90.5417 55.6622 89.4864C55.6068 89.3936 55.5403 89.3008 55.4737 89.2081C55.119 88.6398 54.7643 88.7326 54.5204 89.2776C53.9661 90.4606 52.4584 90.5417 51.9484 91.3304C51.4828 92.061 53.1014 93.2207 52.8021 94.5312C52.7799 94.6356 52.8021 94.7632 52.8021 94.8675C52.7577 95.5054 53.1457 95.8185 53.5781 95.4822C54.864 94.508 56.0502 95.1575 57.436 95.7025H57.447Z" fill="#E2412E"/>
<path id="Vector_12" d="M16.3739 66.1178C17.2275 64.3202 16.3739 62.859 14.977 61.3977C13.9128 60.296 14.3562 58.9159 15.8417 58.8347C17.9037 58.7303 18.8904 57.6634 19.6553 55.8194C20.3426 54.1726 21.7062 54.1494 22.3492 55.8194C23.1363 57.8489 24.3668 58.7767 26.4177 58.7187C27.0274 58.6955 27.6039 58.9855 27.8478 59.6581C28.1249 60.4119 27.8145 61.015 27.238 61.4441C25.6306 62.627 25.1761 64.0999 25.6527 66.141C26.0408 67.7994 24.9765 68.7156 23.624 67.8922C21.7283 66.7325 20.1763 66.8716 18.3804 68.0546C17.1388 68.8664 16.263 68.0545 16.3628 66.1178H16.3739ZM16.8949 60.6555C18.5689 62.1283 19.1453 63.5084 18.5467 65.5379C20.132 64.6681 21.4955 64.2274 22.8924 65.2016C23.236 65.4452 23.5797 65.132 23.4467 64.7261C22.9034 63.0329 23.879 61.9428 25.0209 60.6903C23.0476 60.6207 21.8614 59.5653 20.9191 57.8025C20.2207 59.6233 19.2008 60.7019 16.8838 60.6671L16.8949 60.6555Z" fill="#E2412E"/>
<path id="Vector_13" d="M83.6541 96.3055C84.6074 94.5196 83.5432 93.2555 82.091 92.0957C81.6032 91.7014 81.2706 91.1447 81.5145 90.4489C81.7473 89.7879 82.2905 89.4515 82.9113 89.4515C84.8513 89.4515 86.104 88.6165 86.8801 86.6566C87.4454 85.2069 88.7757 85.2069 89.4298 86.6566C90.2723 88.5237 91.4918 89.3472 93.4318 89.4515C94.9838 89.5443 95.3275 90.6693 94.3519 91.9218C94.108 92.2233 93.8531 92.548 93.5427 92.7568C92.4673 93.5106 92.29 94.4964 92.6558 95.7257C92.8997 96.5375 93.1325 97.4189 92.3676 98.1031C91.5583 98.8222 90.7601 98.3583 90.1282 97.8712C88.5984 96.6999 87.3013 97.4537 85.8823 98.1147C84.286 98.857 83.5654 98.3119 83.6541 96.3055ZM88.2104 88.5354C87.4787 90.3561 86.2703 91.1563 84.5188 91.5275C86.0264 92.6872 86.2038 94.0789 85.9599 95.7373C87.3013 95.0414 88.4653 94.6471 89.7291 95.285C90.3278 95.5865 90.5384 95.1226 90.483 94.6007C90.361 93.3946 90.9153 92.432 91.6802 91.4115C90.0506 91.11 88.9199 90.3329 88.2214 88.5354H88.2104Z" fill="#E2412E"/>
</g>
</svg>
