<svg width="144" height="130" viewBox="0 0 144 130" fill="none" xmlns="http://www.w3.org/2000/svg">
<g id="Gears">
<path id="Vector" d="M39.1237 34.8849C40.8663 34.8849 42.6089 34.8741 44.3618 34.8849C47.2247 34.9067 47.9715 35.6879 47.9922 38.7588C48.013 41.2328 48.0337 43.7177 47.9922 46.1918C47.9715 47.3311 48.2931 48.0799 49.3925 48.3728C50.6269 48.6984 51.7886 49.9788 53.1266 48.4705C54.7448 46.6584 56.4459 44.9331 58.147 43.2077C59.8896 41.4282 60.9268 41.3848 62.6072 43.1101C65.4078 45.9856 68.1876 48.8828 70.926 51.8235C72.4819 53.4946 72.4611 54.6665 70.9052 56.3809C69.3079 58.128 67.6897 59.8424 66.0094 61.4918C65.1796 62.3165 64.9618 63.0218 65.47 64.2046C66.9326 67.6227 66.8703 67.6444 70.3555 67.6444C72.0359 67.6444 73.7162 67.6661 75.4069 67.6444C77.0769 67.6227 78.0727 68.5125 78.1038 70.2052C78.1868 74.6325 78.1971 79.0706 78.1245 83.4978C78.0934 85.3859 76.9421 86.254 75.158 86.2431C72.7308 86.2323 70.2933 86.3299 67.8661 86.2214C66.3413 86.1563 65.8538 87.1004 65.3248 88.294C64.8062 89.4442 65.0862 90.2038 65.9264 91.0285C67.6897 92.7755 69.4012 94.5876 71.0816 96.4106C72.6271 98.0817 72.6167 99.0691 71.0401 100.74C68.198 103.757 65.3352 106.752 62.4412 109.725C60.7816 111.428 59.8066 111.418 58.147 109.725C56.3214 107.858 54.444 106.036 52.7533 104.039C51.5604 102.628 50.5335 103.583 49.3925 103.909C48.2931 104.223 47.9611 104.94 47.9922 106.079C48.0441 108.488 48.0337 110.908 47.9922 113.317C47.9508 115.563 47.1521 116.42 45.0568 116.442C40.9493 116.474 36.8314 116.474 32.7238 116.442C30.556 116.42 29.8506 115.639 29.8299 113.338C29.7988 110.669 29.8299 107.989 29.8091 105.319C29.8091 104.874 29.8921 104.321 29.4046 104.115C28.9171 103.92 28.6059 104.386 28.3155 104.701C26.1476 106.947 24.0005 109.226 21.8223 111.461C20.09 113.241 19.0839 113.273 17.3828 111.526C14.6756 108.737 11.9787 105.938 9.32333 103.084C7.65335 101.304 7.69484 100.187 9.35445 98.4072C11.097 96.5517 12.85 94.6853 14.6445 92.884C15.3394 92.1787 15.3394 91.6036 15.0075 90.6595C14.0636 87.9467 12.5492 86.6338 9.60338 87.0353C7.34216 87.3499 4.99796 87.0895 2.69525 87.1004C1.14974 87.1004 0.122853 86.4493 0.102108 84.7348C0.0294997 80.1123 -0.0327218 75.4789 0.0191411 70.8563C0.0398862 69.2503 1.06676 68.4365 2.63302 68.4365C5.30914 68.4365 7.99563 68.4257 10.6718 68.4365C11.5223 68.4365 12.4247 68.4257 12.5596 67.3297C12.7359 65.9191 14.4059 64.6386 12.8293 63.0544C10.7133 60.9384 8.66984 58.7465 6.61608 56.5654C4.832 54.6665 4.81126 53.6356 6.56423 51.7801C9.22997 48.948 11.9061 46.1267 14.6341 43.3596C16.7086 41.2545 17.5799 41.3088 19.6337 43.4465C21.397 45.2803 23.1707 47.1141 24.9133 48.9805C25.5668 49.675 26.1891 50.2718 27.1538 49.5882C28.2014 48.8503 29.9025 48.9046 29.8403 46.8428C29.7469 43.9131 29.8714 40.9724 29.8091 38.0426C29.7677 36.1111 30.556 35.0477 32.4023 35.0043C34.6428 34.9501 36.8832 34.9935 39.1237 34.9935C39.1237 34.9609 39.1237 34.9284 39.1237 34.8958V34.8849ZM38.6881 114.304C40.4929 114.304 42.3081 114.25 44.1129 114.326C45.4717 114.38 46.0318 113.859 45.9903 112.394C45.9177 110.05 45.9903 107.696 45.9696 105.352C45.9488 103.703 46.6231 102.628 48.1582 102.14C48.7494 101.955 49.351 101.749 49.9008 101.456C51.3944 100.653 52.6184 100.979 53.7697 102.216C55.5434 104.137 57.4002 105.981 59.1739 107.902C59.9414 108.727 60.5534 108.813 61.3521 107.945C63.966 105.146 66.611 102.379 69.2871 99.6551C70.0858 98.8412 70.1273 98.2336 69.2975 97.4089C67.4926 95.6076 65.7915 93.7087 63.9867 91.8965C62.7731 90.6704 62.6279 89.3682 63.3747 87.8382C64.1942 86.1455 64.5261 84.0078 67.0674 84.1055C69.5568 84.2031 72.0566 84.0838 74.546 84.138C75.7389 84.1597 76.2367 83.704 76.2056 82.4235C76.1434 79.9495 76.1953 77.4646 76.1953 74.9906C76.1953 69.7603 76.1745 69.4565 71.1749 69.8471C67.0052 70.1727 64.4431 69.0333 63.3955 64.5301C63.0117 62.859 62.9806 61.6871 64.1631 60.4935C65.916 58.7356 67.5756 56.8801 69.339 55.1222C70.0962 54.3626 70.1169 53.8309 69.3494 53.0497C66.6732 50.326 64.0386 47.5482 61.4143 44.7594C60.6883 43.989 60.097 43.9673 59.3813 44.7594C58.2196 46.029 56.84 47.125 55.8546 48.5248C53.8112 51.4329 51.5189 51.8669 48.459 50.2935C46.8409 49.458 45.9696 48.5139 45.9903 46.6475C46.0111 44.0433 45.9385 41.4282 45.9903 38.8239C46.0214 37.4892 45.5547 36.9684 44.2477 36.9901C40.7626 37.0552 37.267 37.066 33.7818 36.9901C32.3297 36.9575 31.7592 37.4675 31.8007 39.0084C31.8733 41.6777 31.8007 44.3579 31.8214 47.0273C31.8422 48.7852 31.2198 50.0439 29.5706 50.6733C28.9275 50.9229 28.3155 51.2484 27.7035 51.5739C26.3032 52.3226 25.1 52.1165 23.9901 50.912C22.2164 48.9914 20.3286 47.1792 18.5964 45.2152C17.5177 43.989 16.7293 43.8588 15.5676 45.1501C13.2234 47.7652 10.7859 50.2826 8.30681 52.7567C7.32142 53.7333 7.20731 54.406 8.26531 55.4369C10.4021 57.5312 12.3936 59.7773 14.5096 61.9042C15.6091 63.011 15.7854 64.2154 15.2564 65.6261C15.0282 66.2337 14.7274 66.8305 14.6133 67.4599C14.2088 69.7495 12.7981 70.5416 10.734 70.5091C8.43128 70.4765 6.11821 70.5633 3.8155 70.5091C2.43595 70.4765 1.93807 71.0516 1.96919 72.4731C2.03142 75.9889 2.0418 79.5155 1.96919 83.0312C1.93807 84.6046 2.57079 85.1038 3.97109 85.0495C5.65144 84.9844 7.3629 85.2231 9.01214 84.9953C13.0471 84.4418 15.6195 85.8525 16.8849 90.1278C17.3932 91.8314 17.3621 92.9383 16.2003 94.1319C14.5096 95.8572 12.8811 97.6693 11.1593 99.3621C10.1842 100.328 10.1013 101.066 11.1281 102.086C13.6072 104.56 16.0344 107.099 18.3993 109.692C19.3432 110.723 19.9552 110.571 20.8161 109.627C22.9321 107.327 25.1207 105.091 27.2886 102.845C28.0769 102.031 28.9586 101.435 30.1307 101.912C31.3858 102.422 31.6243 103.518 31.614 104.777C31.5932 107.251 31.6866 109.736 31.5828 112.21C31.5102 113.87 32.1533 114.402 33.6574 114.326C35.3377 114.239 37.0181 114.304 38.7088 114.304H38.6881Z" fill="#E2412E"/>
<path id="Vector_2" d="M101.089 59.4411C99.2431 61.4594 97.4279 63.4885 95.5505 65.4743C93.6315 67.5034 92.8017 67.5143 90.8724 65.5394C88.6423 63.2607 86.433 60.9602 84.2755 58.6164C82.8026 57.0213 82.8337 56.0013 84.2858 54.4279C85.6343 52.9738 87.0138 51.5632 88.3726 50.1309C88.9535 49.5232 89.6277 48.9155 89.0261 47.9606C88.3312 46.843 88.3 45.0742 86.3915 45.1176C84.0888 45.1719 81.7757 45.1502 79.473 45.1176C76.9525 45.0742 76.2367 44.3147 76.2264 41.7321C76.2056 38.4117 76.2056 35.0804 76.2264 31.76C76.2471 29.4921 76.9939 28.6783 79.1307 28.624C81.1222 28.5697 83.1137 28.5806 85.1156 28.6131C86.1425 28.624 86.9205 28.4395 87.2524 27.2351C87.5636 26.1066 88.0926 25.1083 86.9827 24.0448C85.1986 22.3304 83.5079 20.4965 81.8276 18.6627C80.4065 17.1219 80.3754 16.1344 81.7757 14.6261C84.1614 12.0544 86.5782 9.51524 89.0572 7.0412C90.5924 5.50034 91.5259 5.5763 93.061 7.14971C94.5339 8.65801 95.9861 10.1772 97.4279 11.718C98.1021 12.4342 98.6726 13.0852 99.8136 12.4776C100.944 11.8808 101.815 11.3816 101.712 9.78652C101.577 7.64886 101.65 5.48949 101.691 3.33013C101.732 0.812674 102.459 0.0422475 104.824 0.0205453C108.122 -0.00115682 111.431 -0.0120079 114.729 0.0205453C116.835 0.0422475 117.53 0.801823 117.561 2.96119C117.592 5.17481 117.644 7.39928 117.551 9.6129C117.488 11.0018 118.297 11.3708 119.273 11.7614C120.216 12.1412 121.036 12.6078 121.949 11.5444C123.276 9.99269 124.739 8.56035 126.16 7.1063C127.622 5.6197 128.597 5.58715 129.998 7.0412C132.446 9.55865 134.873 12.087 137.269 14.6478C138.586 16.0584 138.565 17.0784 137.248 18.5216C135.869 20.0299 134.51 21.5599 133.006 22.9272C131.678 24.1425 132.736 25.1625 133.027 26.2585C133.307 27.311 133.732 28.1791 135.039 28.1357C136.906 28.0706 138.773 28.1032 140.65 28.1357C142.694 28.1683 143.347 28.841 143.368 30.957C143.399 34.4076 143.399 37.8691 143.368 41.3198C143.358 43.414 142.704 44.1628 140.713 44.2604C138.783 44.3581 136.854 44.3364 134.914 44.293C133.711 44.2604 132.964 44.6945 132.446 45.8989C131.917 47.1143 132.581 47.7111 133.244 48.4055C134.614 49.8379 136.003 51.2377 137.331 52.7026C138.607 54.1023 138.628 55.2417 137.352 56.6198C134.914 59.2349 132.446 61.8175 129.946 64.3675C128.535 65.8107 127.519 65.7673 126.098 64.3132C124.583 62.7615 123.038 61.2424 121.617 59.593C120.745 58.573 119.957 58.8551 118.961 59.2349C117.934 59.6364 117.488 60.2332 117.53 61.4051C117.603 63.4234 117.54 65.4417 117.54 67.4709C117.54 69.2505 116.627 70.1511 115.009 70.162C111.462 70.2054 107.904 70.2271 104.357 70.162C102.427 70.1186 101.681 69.2613 101.639 67.2213C101.598 64.7581 101.639 62.2841 101.639 59.8209C101.442 59.7015 101.245 59.5713 101.048 59.4519L101.089 59.4411ZM78.2698 36.7298C78.2698 38.2923 78.3009 39.8549 78.2698 41.4174C78.2387 42.5893 78.7261 43.0559 79.836 43.0234C81.3297 42.9691 82.8544 43.2187 84.317 42.9691C87.771 42.394 89.8248 43.8264 90.9865 47.2119C91.4948 48.6985 91.5052 49.8162 90.416 50.923C88.9431 52.4204 87.5221 53.983 86.0388 55.4696C85.3231 56.1858 85.1675 56.7283 85.987 57.5421C88.103 59.6581 90.1671 61.8283 92.2001 64.0311C92.9262 64.8124 93.4552 64.8558 94.1916 64.0528C95.872 62.219 97.6146 60.4394 99.3364 58.649C100.125 57.8243 100.882 56.826 102.21 57.3685C103.651 57.9545 103.714 59.2783 103.703 60.6347C103.693 62.5228 103.734 64.4109 103.693 66.3098C103.662 67.536 104.066 68.0894 105.311 68.0568C108.174 68.0026 111.047 67.9917 113.91 68.0568C115.269 68.0894 115.632 67.4275 115.601 66.1579C115.559 64.3349 115.601 62.5119 115.601 60.6781C115.601 59.1373 116.161 58.0521 117.644 57.5747C119.324 57.0321 120.963 55.8168 122.623 57.6941C124.023 59.2675 125.558 60.7107 126.959 62.2841C127.778 63.2064 128.369 63.2498 129.23 62.3058C131.242 60.0813 133.317 57.9111 135.443 55.806C136.387 54.8728 136.201 54.2651 135.36 53.4296C133.867 51.9538 132.477 50.3587 131.014 48.8504C129.635 47.4289 130.288 46.04 130.921 44.5534C131.522 43.1428 132.217 42.0793 133.929 42.1879C135.547 42.2855 137.165 42.2096 138.783 42.2096C140.54 42.2096 141.418 41.2583 141.418 39.3557C141.418 37.7932 141.428 36.2306 141.418 34.6681C141.356 29.1991 142.04 30.0238 136.978 29.9912C131.419 29.9587 132.622 30.23 130.662 25.6183C130.029 24.1317 130.216 23.0031 131.263 21.9072C132.632 20.4748 133.97 19.0208 135.35 17.6102C136.086 16.8614 136.097 16.2212 135.35 15.4616C133.265 13.3131 131.18 11.1538 129.147 8.96184C128.421 8.18056 127.871 8.14801 127.145 8.96184C125.818 10.4267 124.355 11.7614 123.069 13.2697C121.274 15.3748 119.553 13.8882 117.779 13.3457C116.244 12.8682 115.59 11.7506 115.59 10.1229C115.59 8.0395 115.549 5.95609 115.59 3.86183C115.611 2.63566 115.144 2.08225 113.931 2.10395C111.068 2.14736 108.195 2.14736 105.332 2.10395C104.118 2.08225 103.672 2.61395 103.703 3.86183C103.755 6.20566 103.662 8.56035 103.724 10.9042C103.797 13.6495 101.494 13.6821 99.9795 14.5936C98.7556 15.3423 97.7183 14.8865 96.7952 13.9099C95.2185 12.2389 93.6004 10.6112 92.0445 8.92929C91.3599 8.19141 90.8102 8.00694 90.0323 8.84248C87.9059 11.1321 85.7484 13.3999 83.5598 15.6136C82.7403 16.4382 82.9685 17.0025 83.6739 17.697C84.9808 18.9991 86.1218 20.5182 87.5428 21.6685C89.9078 23.5891 90.2501 25.6834 88.9639 28.4721C88.2689 29.9804 87.491 30.7508 85.8936 30.7183C83.8398 30.6749 81.7861 30.74 79.7219 30.7183C78.7054 30.7074 78.2386 31.1523 78.2594 32.2266C78.2905 33.724 78.2594 35.2215 78.2594 36.7189L78.2698 36.7298Z" fill="#E2412E"/>
<path id="Vector_3" d="M100.695 122.356C99.6477 123.614 98.5793 124.851 97.542 126.121C96.3803 127.532 95.2082 127.684 93.9116 126.305C92.2935 124.591 90.6443 122.909 89.0158 121.205C87.9993 120.142 87.9578 119.057 89.0054 117.972C89.9389 117.006 90.8517 116.04 91.7749 115.064C92.2001 114.608 92.781 114.207 92.3454 113.414C91.9201 112.633 91.6504 111.711 90.5198 111.732C88.9639 111.754 87.408 111.711 85.8521 111.732C84.1822 111.754 83.2797 111.016 83.3109 109.172C83.3523 106.763 83.342 104.354 83.3109 101.934C83.2797 100.089 84.1614 99.3405 85.8521 99.3839C87.0969 99.4165 88.3416 99.3839 89.5863 99.3839C90.3124 99.3839 90.8932 99.2646 91.2355 98.429C91.5985 97.5392 91.3185 96.9533 90.7376 96.3565C89.5863 95.1629 88.4453 93.9584 87.3354 92.7322C86.3604 91.658 86.3604 90.5186 87.3458 89.4552C89.0884 87.5888 90.831 85.7224 92.6254 83.9211C93.5797 82.9662 94.6584 82.9988 95.6231 83.9428C96.7122 85.0062 97.7495 86.1348 98.8179 87.2416C99.2742 87.7082 99.7099 88.1314 100.446 87.7624C101.1 87.4369 101.38 86.9269 101.38 86.2216C101.401 84.7241 101.411 83.2267 101.411 81.7292C101.411 79.9171 102.158 78.9622 104.025 79.0273C106.328 79.1141 108.63 79.0924 110.943 79.0273C112.707 78.9839 113.443 79.8954 113.433 81.6424C113.433 82.8794 113.433 84.1165 113.433 85.3535C113.433 86.2324 113.495 87.0028 114.491 87.3826C115.393 87.7299 115.901 87.285 116.451 86.7099C117.281 85.8309 118.132 84.9628 118.972 84.0839C119.978 83.0313 121.025 82.912 122.073 83.9971C123.847 85.8309 125.6 87.6756 127.353 89.5311C128.317 90.5511 128.297 91.5929 127.353 92.6237C126.533 93.5135 125.714 94.4141 124.853 95.2605C124.148 95.955 123.847 96.6169 124.282 97.6586C124.697 98.6569 125.268 99.0584 126.274 98.9933C127.27 98.9282 128.266 98.9933 129.261 98.9824C130.942 98.9499 131.823 99.7854 131.823 101.565C131.823 103.909 131.823 106.253 131.823 108.607C131.823 110.202 131.118 111.027 129.552 111.005C128.245 110.984 126.938 111.016 125.631 111.005C124.946 111.005 124.438 111.266 124.148 111.949C123.836 112.687 124.148 113.197 124.625 113.686C125.548 114.651 126.471 115.628 127.384 116.605C128.39 117.668 128.463 118.775 127.446 119.86C125.704 121.715 123.93 123.549 122.166 125.394C121.14 126.457 120.102 126.479 119.065 125.405C118.049 124.352 117.032 123.3 116.016 122.236C115.549 121.748 115.072 121.444 114.356 121.759C113.671 122.074 113.464 122.584 113.464 123.3C113.464 124.602 113.464 125.904 113.443 127.206C113.422 128.584 112.79 129.474 111.431 129.517C108.755 129.593 106.079 129.658 103.403 129.582C101.93 129.539 101.452 128.356 101.421 126.989C101.39 125.589 101.421 124.179 101.421 122.779L100.726 122.377L100.695 122.356ZM129.79 104.972C129.738 100.176 130.299 100.849 125.828 100.795C125.517 100.795 125.206 100.795 124.894 100.816C124.314 100.86 123.795 100.784 123.349 100.317C121.658 98.5484 121.637 95.7163 123.318 93.9367C125.15 92.0052 125.136 90.0665 123.276 88.1205C120.59 85.3101 120.569 85.2884 117.852 88.1639C116.731 89.3467 115.715 90.2039 113.951 89.3684C111.441 88.1856 111.4 88.2941 111.4 84.735C111.4 82.2899 110.276 81.0673 108.029 81.0673C103.403 81.0673 103.299 81.0673 103.434 85.9286C103.496 88.0988 102.583 89.0645 100.84 89.8458C99.1601 90.5945 98.2681 89.618 97.2931 88.5654C96.8989 88.1422 96.5048 87.7407 96.1002 87.3175C94.088 85.2124 94.0672 85.1907 92.086 87.3175C90.9658 88.522 88.9639 89.5528 88.9432 90.9852C88.9224 92.5586 90.9036 93.6763 92.1379 94.7939C93.8183 96.3131 93.5382 97.8648 92.8432 99.6986C92.1898 101.424 90.8932 101.489 89.4722 101.467C88.9743 101.467 88.4764 101.467 87.9785 101.467C86.1944 101.467 85.2989 102.411 85.292 104.299C85.2713 109.519 85.2816 109.671 90.302 109.519C92.8951 109.443 93.5278 111.244 94.3784 113.035C95.1563 114.673 93.9842 115.563 93.0922 116.539C92.7914 116.876 92.4698 117.18 92.169 117.505C89.9182 119.914 89.9804 119.339 92.1898 121.629C93.2893 122.757 94.1917 124.732 95.6024 124.721C97.0026 124.71 97.8636 122.681 99.0253 121.629C99.9796 120.761 100.789 119.372 102.345 120.12C103.838 120.837 103.237 122.367 103.361 123.593C103.371 123.723 103.361 123.853 103.361 123.983C103.392 127.944 102.957 127.477 106.794 127.499C111.234 127.521 111.255 127.499 111.369 122.822C111.4 121.531 111.701 120.576 112.976 120.055C114.356 119.491 115.642 118.862 116.908 120.272C117.758 121.227 118.702 122.084 119.553 123.039C120.237 123.81 120.839 123.983 121.544 123.083C121.855 122.681 122.27 122.356 122.592 121.965C123.639 120.695 125.61 119.806 125.652 118.221C125.683 116.724 123.774 115.802 122.716 114.63C121.845 113.664 121.648 112.763 122.063 111.461C122.695 109.454 123.971 109.063 125.797 109.074C130.226 109.106 129.749 109.801 129.78 104.951L129.79 104.972Z" fill="#E2412E"/>
<path id="Vector_4" d="M20.4738 75.62C20.4738 64.834 28.6785 56.2942 38.9992 56.2942C49.4444 56.2942 57.6906 64.8557 57.7009 75.6851C57.7009 86.3843 49.2369 95.2496 39.0303 95.2279C28.7407 95.2062 20.4635 86.4602 20.4738 75.62ZM22.455 75.5549C22.4135 85.3425 29.6328 93.0685 38.8851 93.1336C48.1789 93.1879 55.6368 85.5596 55.699 75.9238C55.7613 66.1253 48.4279 58.2582 39.1444 58.1714C30.0166 58.0955 22.4965 65.9191 22.455 75.5549Z" fill="#E2412E"/>
<path id="Vector_5" d="M109.782 18.3046C118.557 18.1202 125.776 25.5315 125.994 34.9502C126.201 43.8481 118.951 51.7043 110.394 51.8779C101.255 52.0515 93.922 44.8247 93.7871 35.5036C93.6419 25.9004 100.529 18.5 109.771 18.3046H109.782ZM109.885 49.7836C117.727 49.7836 124.106 43.1645 124.065 35.0479C124.023 26.953 117.478 20.1276 109.854 20.2036C102.002 20.2904 95.7787 26.877 95.789 35.0804C95.789 43.4141 101.888 49.7728 109.896 49.7728L109.885 49.7836Z" fill="#E2412E"/>
<path id="Vector_6" d="M107.593 116.474C101.017 116.496 95.789 111.136 95.7268 104.3C95.6749 97.6153 101.038 91.9619 107.479 91.9293C114.003 91.8968 119.418 97.5719 119.355 104.376C119.304 110.995 113.993 116.453 107.593 116.474ZM117.343 104.31C117.343 98.5051 113.09 94.0561 107.541 94.0561C101.981 94.0561 97.7079 98.5159 97.7287 104.289C97.7494 109.953 102.261 114.652 107.624 114.576C112.956 114.5 117.354 109.866 117.354 104.31H117.343Z" fill="#E2412E"/>
</g>
</svg>
