<svg width="118" height="99" viewBox="0 0 118 99" fill="none" xmlns="http://www.w3.org/2000/svg">
<g id="Megaphone">
<path id="Vector" d="M0 51.4212C0 47.7404 0.361703 47.2359 3.14577 46.7887C4.31858 46.6052 4.9543 46.2383 5.19544 44.7935C5.76541 41.4568 8.40698 39.0832 11.6733 38.5213C17.658 37.4779 23.6426 36.4115 29.6272 35.3795C30.811 35.1731 31.8413 34.703 32.8388 33.9921C44.5011 25.7591 56.1745 17.5605 67.8478 9.35048C68.2533 9.06381 68.6589 8.76569 69.0754 8.50195C71.6293 6.89664 74.3585 8.06623 74.9175 11.1507C75.8602 16.3795 76.6823 21.6426 77.5262 26.8943C80.0363 42.4429 82.5354 57.9915 85.0454 73.5516C85.1112 73.9529 85.1769 74.3657 85.2098 74.767C85.4071 78.2185 83.3026 80.076 80.0801 79.1931C73.8763 77.4961 67.6834 75.7302 61.4905 73.9988C53.5877 71.7857 45.6849 69.6071 37.804 67.3367C35.9297 66.7978 34.2089 67.4629 32.4442 67.7151C29.0573 68.2082 29.0354 68.277 29.5944 71.8431C30.6028 78.2643 31.655 84.6741 32.6524 91.0839C33.047 93.6524 32.1811 95.8425 30.1095 97.1956C27.6762 98.7894 24.8483 99.294 22.0533 98.8009C19.2144 98.2964 17.6251 96.198 17.1428 93.1938C16.255 87.5866 15.3343 81.9795 14.4355 76.3838C14.3039 75.5812 14.1614 74.767 14.0847 73.9529C13.8874 71.8545 13.4709 70.0428 11.1582 69.2746C9.96342 68.8732 9.13041 67.6693 8.52756 66.4767C8.16585 65.7543 7.71644 65.5135 6.99303 65.7429C6.85053 65.7887 6.69709 65.7773 6.5546 65.8002C3.32114 66.2589 2.44426 65.7314 1.75373 62.3832C0.964547 58.5304 0.328826 54.6433 0 51.4326V51.4212ZM83.2588 75.1454C83.2259 74.939 83.1601 74.595 83.1053 74.2396C81.4831 64.1376 79.8609 54.0355 78.2277 43.9335C76.5069 33.2811 74.7751 22.6287 73.0213 11.9763C72.6925 9.9926 71.4868 9.45367 69.8317 10.5201C68.9548 11.0819 68.1218 11.7126 67.2669 12.3088C56.2512 20.0602 45.2245 27.8001 34.2089 35.563C33.4964 36.0675 32.7401 36.4115 32.9484 37.6843C34.3733 46.158 35.7544 54.6433 37.0368 63.14C37.267 64.688 37.9356 65.2498 39.2838 65.6282C48.6663 68.1967 58.0269 70.8455 67.3874 73.4598C71.7827 74.6868 76.178 75.9366 80.5843 77.1406C82.2285 77.5878 83.2259 76.8539 83.2259 75.1454H83.2588ZM16.1454 68.426C21.7683 67.4399 28.0927 66.3391 34.4062 65.2154C35.1296 65.0893 35.305 64.6306 35.1734 63.8738C33.8033 55.5033 32.4661 47.1212 31.1289 38.7392C30.9754 37.7531 30.5479 37.3173 29.5395 37.5008C23.5659 38.5901 17.5703 39.5648 11.6076 40.7458C8.48371 41.365 6.54363 44.289 7.01495 47.5684C7.79317 52.9348 8.68101 58.2782 9.62364 63.6101C10.1498 66.5799 12.5392 68.4604 16.1344 68.426H16.1454ZM23.9385 96.7713C24.5304 96.6796 25.5498 96.5305 26.5691 96.3585C29.7588 95.8081 31.0741 93.9849 30.5589 90.6367C29.4957 83.86 28.3558 77.1062 27.3035 70.3295C27.0953 68.965 26.4705 68.6898 25.2867 68.9191C22.5465 69.458 19.7953 69.9511 17.0332 70.3983C15.9481 70.5703 15.6302 71.1207 15.8056 72.1871C16.9565 79.2046 18.0745 86.2336 19.2692 93.2396C19.6857 95.7164 21.1435 96.8401 23.9385 96.7713ZM1.66604 51.2492C1.95102 53.0265 2.31275 55.4115 2.70734 57.7736C3.00328 59.5853 3.17865 61.4315 3.7815 63.1858C4.38435 64.9517 5.62292 63.9885 6.62036 63.9312C7.70549 63.8624 7.44242 62.9909 7.33281 62.3144C6.65324 58.0144 5.9627 53.7259 5.26121 49.4375C5.19544 49.0361 5.1516 48.6119 4.70221 48.4284C3.31018 47.878 1.66604 49.0705 1.66604 51.2492Z" fill="#E2412E"/>
<path id="Vector_2" d="M87.1499 18.3174C86.7663 18.3518 86.5032 18.2371 86.3497 17.9275C86.1744 17.5721 86.1963 17.2052 86.4484 16.93C86.8211 16.5172 87.2157 16.1388 87.6322 15.7718C92.9811 11.1164 98.3409 6.47248 103.701 1.81707C104.008 1.55334 104.315 1.30108 104.622 1.04881C105.038 0.716284 105.498 0.498419 105.926 1.00295C106.364 1.50747 106.079 2.00053 105.718 2.356C104.742 3.28479 103.723 4.17918 102.703 5.0621C97.9573 9.19005 93.2003 13.318 88.4542 17.446C88.0487 17.8014 87.6541 18.2142 87.1608 18.3174H87.1499Z" fill="#E2412E"/>
<path id="Vector_3" d="M92.6742 39.4502C92.3234 39.4731 91.8411 39.347 91.7863 38.6934C91.7096 37.9366 92.3344 37.7532 92.8386 37.65C95.524 37.0996 98.2204 36.5836 100.917 36.0676C105.06 35.2764 109.192 34.4967 113.335 33.7169C113.533 33.6825 113.719 33.6252 113.916 33.6137C114.453 33.5793 115.089 33.4761 115.265 34.1985C115.451 34.9897 114.892 35.2764 114.256 35.391C112.524 35.735 110.792 36.0676 109.061 36.4001C103.964 37.3748 98.8561 38.3379 93.7483 39.3011C93.4633 39.3585 93.1674 39.3814 92.6851 39.4502H92.6742Z" fill="#E2412E"/>
<path id="Vector_4" d="M95.6555 60.9957C100.38 61.8443 105.104 62.6928 109.828 63.5413C111.9 63.9197 113.971 64.2866 116.043 64.665C116.284 64.7109 116.536 64.7224 116.766 64.7912C117.336 64.9517 118.005 65.1122 117.851 65.9493C117.698 66.7749 117.051 66.7175 116.448 66.6029C113.598 66.0983 110.76 65.5823 107.921 65.0664C104.063 64.3669 100.204 63.6789 96.357 62.9794C96.0172 62.9221 95.6884 62.8304 95.3486 62.7616C94.8006 62.6469 94.1977 62.4749 94.2854 61.7525C94.3841 60.9269 95.0636 60.9843 95.6665 60.9957H95.6555Z" fill="#E2412E"/>
</g>
</svg>
